HIERARCHY
ROOT joint_Root
{
	OFFSET 0.0 0.0 0.0
	CHANNELS 6 Xposition Yposition Zposition Zrotation Xrotation Yrotation 
	JOINT Hips
	{
		OFFSET -17.1583 93.1646 452.98
		CHANNELS 6 Xposition Yposition Zposition Zrotation Xrotation Yrotation 
		JOINT Spine
		{
			OFFSET 15.7357 0.0 0.0
			CHANNELS 6 Xposition Yposition Zposition Zrotation Xrotation Yrotation 
			JOINT Chest
			{
				OFFSET 8.98455 -0.406207 0.0
				CHANNELS 6 Xposition Yposition Zposition Zrotation Xrotation Yrotation 
				JOINT Neck
				{
					OFFSET 16.3773 0.0 0.0
					CHANNELS 6 Xposition Yposition Zposition Zrotation Xrotation Yrotation 
					JOINT Head
					{
						OFFSET 6.45672 0.0 0.0
						CHANNELS 6 Xposition Yposition Zposition Zrotation Xrotation Yrotation 
						End Site
						{
							OFFSET 0.0 0.0 0.0
						}
					}
				}
				JOINT Shoulder_L
				{
					OFFSET 12.9942 -0.242716 4.98039
					CHANNELS 6 Xposition Yposition Zposition Zrotation Xrotation Yrotation 
					JOINT UpperArm_L
					{
						OFFSET 5.34809 0.0 0.0
						CHANNELS 6 Xposition Yposition Zposition Zrotation Xrotation Yrotation 
						JOINT LowerArm_L
						{
							OFFSET 24.3286 1.87007e-05 0.0
							CHANNELS 6 Xposition Yposition Zposition Zrotation Xrotation Yrotation 
							JOINT Hand_L
							{
								OFFSET 22.2916 0.0 0.0
								CHANNELS 6 Xposition Yposition Zposition Zrotation Xrotation Yrotation 
								End Site
								{
									OFFSET 0.0 0.0 0.0
								}
							}
						}
					}
				}
				JOINT Shoulder_R
				{
					OFFSET 12.9945 -0.242716 -4.98039
					CHANNELS 6 Xposition Yposition Zposition Zrotation Xrotation Yrotation 
					JOINT UpperArm_R
					{
						OFFSET -5.34813 0.0 0.0
						CHANNELS 6 Xposition Yposition Zposition Zrotation Xrotation Yrotation 
						JOINT LowerArm_R
						{
							OFFSET -24.3289 0.000322201 0.0
							CHANNELS 6 Xposition Yposition Zposition Zrotation Xrotation Yrotation 
							JOINT Hand_R
							{
								OFFSET -22.2915 -0.000108084 0.0
								CHANNELS 6 Xposition Yposition Zposition Zrotation Xrotation Yrotation 
								End Site
								{
									OFFSET 0.0 0.0 0.0
								}
							}
						}
					}
				}
			}
		}
		JOINT UpperLeg_L
		{
			OFFSET -2.19248 -6.46944 0.0
			CHANNELS 6 Xposition Yposition Zposition Zrotation Xrotation Yrotation 
			JOINT LowerLeg_L
			{
				OFFSET 39.0811 0.0 -1.23785e-05
				CHANNELS 6 Xposition Yposition Zposition Zrotation Xrotation Yrotation 
				JOINT Foot_L
				{
					OFFSET 40.9854 0.0 -1.26872e-05
					CHANNELS 6 Xposition Yposition Zposition Zrotation Xrotation Yrotation 
					JOINT Toes_L
					{
						OFFSET 11.7543 0.0 0.0
						CHANNELS 6 Xposition Yposition Zposition Zrotation Xrotation Yrotation 
						End Site
						{
							OFFSET 0.0 0.0 0.0
						}
					}
				}
			}
		}
		JOINT UpperLeg_R
		{
			OFFSET -2.19251 6.46944 0.0
			CHANNELS 6 Xposition Yposition Zposition Zrotation Xrotation Yrotation 
			JOINT LowerLeg_R
			{
				OFFSET -39.0811 -0.00228153 -0.0401928
				CHANNELS 6 Xposition Yposition Zposition Zrotation Xrotation Yrotation 
				JOINT Foot_R
				{
					OFFSET -40.9854 0.0 0.0
					CHANNELS 6 Xposition Yposition Zposition Zrotation Xrotation Yrotation 
					JOINT Toes_R
					{
						OFFSET -11.7543 0.0 0.0
						CHANNELS 6 Xposition Yposition Zposition Zrotation Xrotation Yrotation 
						End Site
						{
							OFFSET 0.0 0.0 0.0
						}
					}
				}
			}
		}
	}
}
MOTION
Frames:	4
Frame Time:	0.0333333
0.000000 0.000000 0.000000 0.000000 0.000000 -0.000000 -2.732960 93.631200 0.471370 87.690800 2.497100 -5.231980 15.735700 0.000005 -0.000001 52.365400 89.447200 -50.467900 8.984550 -0.406207 -0.000000 -6.872880 -0.915982 3.746220 16.377300 -0.000001 -0.000001 -1.303010 0.229332 -0.221372 6.456720 -0.000001 -0.000000 -8.888100 0.332598 -3.543780 12.994200 -0.242716 4.980390 -90.103500 0.195599 -62.104200 5.348090 -0.000007 -0.000001 -55.099500 -66.106400 -78.149500 24.328600 0.000019 0.000005 0.000087 -17.886300 0.000001 22.291600 -0.000001 0.000005 36.447300 3.201940 34.657900 12.994500 -0.242716 -4.980390 92.180800 -3.528590 -58.253900 -5.348130 -0.000001 -0.000004 -96.377500 -60.531100 -119.369000 -24.328900 0.000322 -0.000009 -0.001583 -66.280900 -0.000671 -22.291500 -0.000108 -0.000004 50.034900 4.808320 11.159100 -2.192480 -6.469440 -0.000000 -172.420000 -10.413700 -4.129190 39.081100 -0.000007 -0.000012 -0.019546 0.121636 9.128640 40.985400 -0.000006 -0.000013 -5.157670 15.853100 -65.122800 11.754300 -0.000000 0.000003 -0.001603 0.191260 -8.817650 -2.192510 6.469440 -0.000001 179.689000 10.382500 -179.899000 -39.081100 -0.002282 -0.040193 0.004878 -0.032185 2.715570 -40.985400 0.000008 0.000006 -8.577270 7.281050 -62.094000 -11.754300 -0.000006 -0.000006 -0.010183 0.272671 -5.495130
0.000000 0.000000 0.000000 0.000000 0.000000 -0.000000 -2.708980 93.603300 0.645728 87.667000 2.303570 -5.166030 15.735700 0.000005 -0.000001 45.240700 89.544500 -43.334500 8.984550 -0.406207 -0.000000 -7.101930 -0.887219 3.764050 16.377300 -0.000001 -0.000001 -0.568949 0.500420 -0.642191 6.456720 -0.000001 -0.000000 -8.721950 0.308848 -3.572230 12.994200 -0.242716 4.980390 -89.905500 -0.174919 -61.633100 5.348090 -0.000007 -0.000001 -59.878400 -67.258400 -84.607300 24.328600 0.000019 0.000005 0.000233 -17.443100 0.000001 22.291600 -0.000001 0.000005 40.703000 3.278920 33.735000 12.994500 -0.242716 -4.980390 92.210400 -3.553350 -58.086300 -5.348130 -0.000001 -0.000004 -95.203800 -60.959500 -120.026000 -24.328900 0.000322 -0.000009 -0.001105 -63.914600 -0.000602 -22.291500 -0.000108 -0.000004 47.240700 4.821660 10.899900 -2.192480 -6.469440 -0.000000 -172.398000 -10.485000 -3.984240 39.081100 -0.000007 -0.000012 -0.019131 0.116812 9.300700 40.985400 -0.000006 -0.000013 -5.006590 15.785300 -65.359700 11.754300 -0.000000 0.000003 -0.001640 0.191748 -8.797810 -2.192510 6.469440 -0.000001 179.658000 10.370000 -179.789000 -39.081100 -0.002282 -0.040193 0.004720 -0.027636 2.835480 -40.985400 0.000008 0.000006 -8.450660 7.453840 -62.219300 -11.754300 -0.000006 -0.000006 -0.009986 0.271200 -5.555290
0.000000 0.000000 0.000000 0.000000 0.000000 -0.000000 -2.655570 93.574400 0.794540 87.646400 2.104290 -4.903110 15.735700 0.000005 -0.000001 44.060500 89.578500 -42.140900 8.984550 -0.406207 -0.000000 -7.162940 -0.854367 3.792570 16.377300 -0.000001 -0.000001 -0.002774 0.886197 -0.834788 6.456720 -0.000001 -0.000000 -8.337920 0.623475 -3.358690 12.994200 -0.242716 4.980390 -89.682000 -0.575418 -61.071200 5.348090 -0.000007 -0.000001 -63.236600 -67.518200 -91.162600 24.328600 0.000019 0.000005 0.000419 -13.954900 0.000001 22.291600 -0.000001 0.000005 41.778000 3.491610 31.058800 12.994500 -0.242716 -4.980390 92.266000 -3.641800 -58.078000 -5.348130 -0.000001 -0.000004 -89.104900 -62.058900 -118.019000 -24.328900 0.000322 -0.000009 -0.000334 -59.252800 -0.000495 -22.291500 -0.000108 -0.000004 45.011800 4.906830 9.234880 -2.192480 -6.469440 -0.000000 -172.375000 -10.675300 -3.657730 39.081100 -0.000007 -0.000012 -0.017770 0.106011 9.515300 40.985400 -0.000006 -0.000013 -4.763580 15.783000 -65.633100 11.754300 -0.000000 0.000003 -0.001536 0.190383 -8.853340 -2.192510 6.469440 -0.000001 179.552000 10.186900 -179.617000 -39.081100 -0.002282 -0.040193 0.004666 -0.023446 3.211910 -40.985400 0.000008 0.000006 -8.554940 7.523450 -62.437300 -11.754300 -0.000006 -0.000006 -0.010295 0.273495 -5.461410
0.000000 0.000000 0.000000 0.000000 0.000000 -0.000000 -2.605060 93.537700 0.950633 87.654600 2.062520 -4.414560 15.735700 0.000005 -0.000001 52.463900 89.566400 -50.541800 8.984550 -0.406207 -0.000000 -7.062720 -0.775757 3.802940 16.377300 -0.000001 -0.000001 0.525670 1.167020 -0.854179 6.456720 -0.000001 -0.000000 -8.023560 0.886112 -3.021860 12.994200 -0.242716 4.980390 -89.492800 -0.900661 -60.612300 5.348090 -0.000007 -0.000001 -65.812500 -66.945900 -98.033100 24.328600 0.000019 0.000005 0.000521 -11.008600 0.000001 22.291600 -0.000001 0.000005 42.553300 3.691550 28.454500 12.994500 -0.242716 -4.980390 92.457800 -3.922120 -57.890100 -5.348130 -0.000001 -0.000004 -86.741300 -62.092900 -119.925000 -24.328900 0.000322 -0.000009 0.000072 -54.035900 -0.000406 -22.291500 -0.000108 -0.000004 42.703700 4.989160 7.537270 -2.192480 -6.469440 -0.000000 -172.344000 -10.758800 -3.147420 39.081100 -0.000007 -0.000012 -0.014299 0.083280 9.741870 40.985400 -0.000006 -0.000013 -4.226200 15.841700 -66.006400 11.754300 -0.000000 0.000003 -0.001684 0.192315 -8.774770 -2.192510 6.469440 -0.000001 179.387000 10.126900 -179.278000 -39.081100 -0.002282 -0.040193 0.004376 -0.015676 3.747450 -40.985400 0.000008 0.000006 -8.623640 7.581760 -62.738000 -11.754300 -0.000006 -0.000006 -0.010086 0.271943 -5.524880
